<?xml version="1.0" encoding="UTF-8"?>
<!-- Nurture Footer Logo/Emblem - Perfect Geometry Export -->
<!-- Source: ProprHome_logomark_white.svg (used in footer) -->
<!-- Optimized for migration with exact geometry preservation -->
<svg xmlns="http://www.w3.org/2000/svg" 
     xmlns:xlink="http://www.w3.org/1999/xlink" 
     version="1.1" 
     id="NurtureFooterLogo" 
     x="0px" 
     y="0px" 
     viewBox="0 0 1200 750" 
     style="enable-background:new 0 0 1200 750" 
     xml:space="preserve">
  
  <!-- Footer Logo Group - Exact geometry from footer implementation -->
  <g id="nurture-footer-logo" fill="#FFFFFF" stroke="none">
    <!-- Main house/building structure -->
    <path id="footer-house-base" 
          d="M669.6,407.4c0,2.6-2.1,4.8-4.8,4.8H600h-69.6v-67.6c0-1.3,0.5-2.5,1.4-3.4l64.8-64.8c1.9-1.9,4.9-1.9,6.8,0l64.8,64.8c0.9,0.9,1.4,2.1,1.4,3.4V407.4z" 
          fill="#FFFFFF"/>
    
    <!-- Speech bubble/communication element -->
    <path id="footer-speech-bubble" 
          d="M600,342.6l-69.6,69.6l61.4,61.4c3,3,8.2,0.9,8.2-3.4V342.6z" 
          fill="#FFFFFF"/>
    
    <!-- Connection overlay element -->
    <path id="footer-connection" 
          d="M600,412.2h-69.6v-67.6c0-1.3,0.5-2.5,1.4-3.4l64.5-64.5c1.4-1.4,3.7-0.4,3.7,1.5V412.2z" 
          fill="#FFFFFF"/>
  </g>
</svg>
